<?xml version="1.0" encoding="UTF-8"?>
<svg id="Layer_1" data-name="Layer 1" xmlns="http://www.w3.org/2000/svg" viewBox="0 0 1080 1080">
  <defs>
    <style>
      .cls-1, .cls-2 {
        stroke-linecap: round;
        stroke-linejoin: round;
      }

      .cls-1, .cls-2, .cls-3, .cls-4 {
        stroke: #ffc21c;
        stroke-width: 22px;
      }

      .cls-1, .cls-3 {
        fill: none;
      }

      .cls-2, .cls-4 {
        fill: #fff;
      }

      .cls-3, .cls-4 {
        stroke-miterlimit: 10;
      }

      .cls-5 {
        fill: #3e40c1;
      }
    </style>
  </defs>
  <rect class="cls-5" x="57.54" y="54.95" width="964.92" height="970.1" rx="482.46" ry="482.46"/>
  <g>
    <g>
      <g>
        <g>
          <circle class="cls-4" cx="389.54" cy="693.47" r="48.7"/>
          <circle class="cls-4" cx="389.46" cy="386.59" r="48.7"/>
          <circle class="cls-4" cx="696.34" cy="386.52" r="48.7"/>
          <circle class="cls-4" cx="696.42" cy="693.41" r="48.7"/>
        </g>
        <g>
          <circle class="cls-4" cx="541.82" cy="927.68" r="48.7"/>
          <circle class="cls-4" cx="152.32" cy="541.82" r="48.7"/>
          <circle class="cls-4" cx="538.17" cy="152.32" r="48.7"/>
          <circle class="cls-4" cx="927.68" cy="538.17" r="48.7"/>
        </g>
      </g>
      <circle class="cls-3" cx="542.94" cy="540" r="94.23"/>
    </g>
    <g>
      <circle class="cls-2" cx="542.78" cy="541.09" r="52.5"/>
      <g>
        <polyline class="cls-1" points="645.36 264.45 592.86 221.94 542.78 264.45 542.78 414.32"/>
        <polyline class="cls-1" points="439.23 264.45 491.73 221.94 541.82 264.45 541.82 414.32"/>
      </g>
      <g>
        <polyline class="cls-1" points="818.29 644.15 861.92 591.65 818.29 541.57 664.45 541.57"/>
        <polyline class="cls-1" points="818.29 438.02 861.92 490.52 818.29 540.61 664.45 540.61"/>
      </g>
      <g>
        <polyline class="cls-1" points="267.08 644.15 223.88 591.65 267.08 541.57 419.39 541.57"/>
        <polyline class="cls-1" points="267.08 438.02 223.88 490.52 267.08 540.61 419.39 540.61"/>
      </g>
      <g>
        <polyline class="cls-1" points="645.84 815.6 593.34 859.51 543.26 815.6 543.26 660.82"/>
        <polyline class="cls-1" points="439.71 815.6 492.21 859.51 542.3 815.6 542.3 660.82"/>
      </g>
    </g>
  </g>
</svg>